STARTFONT 2.1
COMMENT AUTOMATICALLY GENERATED FILE. DO NOT EDIT!
COMMENT Generated with 'ucs2any.pl 7x14.bdf ../tryfont/KOI8-C.TXT KOI8-C'
COMMENT from an ISO10646-1 encoded source BDF font.
COMMENT ucs2any.pl by Markus Kuhn <mkuhn@acm.org>, 1999.
COMMENT "Send bug reports to Markus Kuhn <mkuhn@acm.org>"
COMMENT Changes 2000 by Serge Winitzki.
COMMENT $XFree86: xc/fonts/bdf/cyrillic/koi7x14.bdf,v 1.1 2002/12/15 01:49:07 dawes Exp $
FONT -Misc-Fixed-Medium-R-Normal--14-130-75-75-C-70-KOI8-R
SIZE 7 75 75
FONTBOUNDINGBOX 7 14 0 -2
STARTPROPERTIES 22
FONTNAME_REGISTRY ""
FOUNDRY "Misc"
FAMILY_NAME "Fixed"
WEIGHT_NAME "Medium"
SLANT "R"
SETWIDTH_NAME "Normal"
ADD_STYLE_NAME ""
PIXEL_SIZE 14
POINT_SIZE 130
RESOLUTION_X 75
RESOLUTION_Y 75
SPACING "C"
AVERAGE_WIDTH 70
CHARSET_REGISTRY "KOI8"
CHARSET_ENCODING "R"
FONT_DESCENT 2
FONT_ASCENT 12
COPYRIGHT "Public domain font.  Share and enjoy."
CAP_HEIGHT 10
X_HEIGHT 7
_XMBDFED_INFO "Edited with xmbdfed 4.3."
_XFREE86_GLYPH_RANGES "0_126 149 152_154 156_158 163 179 191_255"
ENDPROPERTIES
CHARS 201
STARTCHAR char0
ENCODING 0
SWIDTH 960 0
DWIDTH 7 0
BBX 7 10 0 0
BITMAP
82
00
00
00
00
00
00
00
00
82
ENDCHAR
STARTCHAR uni25C6
ENCODING 1
SWIDTH 960 0
DWIDTH 7 0
BBX 7 10 0 0
BITMAP
30
30
78
78
FC
FC
78
78
30
30
ENDCHAR
STARTCHAR shade
ENCODING 2
SWIDTH 960 0
DWIDTH 7 0
BBX 7 14 0 -2
BITMAP
54
AA
54
AA
54
AA
54
AA
54
AA
54
AA
54
AA
ENDCHAR
STARTCHAR uni2409
ENCODING 3
SWIDTH 960 0
DWIDTH 7 0
BBX 7 11 0 0
BITMAP
90
90
F0
90
90
00
7C
10
10
10
10
ENDCHAR
STARTCHAR uni240C
ENCODING 4
SWIDTH 960 0
DWIDTH 7 0
BBX 7 12 0 -1
BITMAP
E0
80
80
E0
80
9C
90
10
1C
10
10
10
ENDCHAR
STARTCHAR uni240D
ENCODING 5
SWIDTH 960 0
DWIDTH 7 0
BBX 7 12 0 -1
BITMAP
70
80
80
80
70
00
38
24
24
38
24
24
ENDCHAR
STARTCHAR uni240A
ENCODING 6
SWIDTH 960 0
DWIDTH 7 0
BBX 7 11 0 0
BITMAP
80
80
80
80
F0
00
3C
20
38
20
20
ENDCHAR
STARTCHAR degree
ENCODING 7
SWIDTH 960 0
DWIDTH 7 0
BBX 7 4 0 7
BITMAP
30
48
48
30
ENDCHAR
STARTCHAR plusminus
ENCODING 8
SWIDTH 960 0
DWIDTH 7 0
BBX 7 6 0 0
BITMAP
10
10
7C
10
10
7C
ENDCHAR
STARTCHAR uni2424
ENCODING 9
SWIDTH 960 0
DWIDTH 7 0
BBX 7 10 0 0
BITMAP
90
D0
B0
90
90
20
20
20
20
3C
ENDCHAR
STARTCHAR uni240B
ENCODING 10
SWIDTH 960 0
DWIDTH 7 0
BBX 7 12 0 -1
BITMAP
88
88
88
50
20
00
7C
10
10
10
10
10
ENDCHAR
STARTCHAR SF040000
ENCODING 11
SWIDTH 960 0
DWIDTH 7 0
BBX 7 8 0 4
BITMAP
10
10
10
10
10
10
10
F0
ENDCHAR
STARTCHAR SF030000
ENCODING 12
SWIDTH 960 0
DWIDTH 7 0
BBX 7 7 0 -2
BITMAP
F0
10
10
10
10
10
10
ENDCHAR
STARTCHAR SF010000
ENCODING 13
SWIDTH 960 0
DWIDTH 7 0
BBX 7 7 0 -2
BITMAP
1F
10
10
10
10
10
10
ENDCHAR
STARTCHAR SF020000
ENCODING 14
SWIDTH 960 0
DWIDTH 7 0
BBX 7 8 0 4
BITMAP
10
10
10
10
10
10
10
1E
ENDCHAR
STARTCHAR SF050000
ENCODING 15
SWIDTH 960 0
DWIDTH 7 0
BBX 7 14 0 -2
BITMAP
10
10
10
10
10
10
10
FE
10
10
10
10
10
10
ENDCHAR
STARTCHAR char16
ENCODING 16
SWIDTH 960 0
DWIDTH 7 0
BBX 7 1 0 9
BITMAP
FE
ENDCHAR
STARTCHAR char17
ENCODING 17
SWIDTH 960 0
DWIDTH 7 0
BBX 7 1 0 7
BITMAP
FE
ENDCHAR
STARTCHAR char18
ENCODING 18
SWIDTH 960 0
DWIDTH 7 0
BBX 7 1 0 4
BITMAP
FE
ENDCHAR
STARTCHAR char19
ENCODING 19
SWIDTH 960 0
DWIDTH 7 0
BBX 7 1 0 2
BITMAP
FE
ENDCHAR
STARTCHAR char20
ENCODING 20
SWIDTH 960 0
DWIDTH 7 0
BBX 7 1 0 -1
BITMAP
FE
ENDCHAR
STARTCHAR SF080000
ENCODING 21
SWIDTH 960 0
DWIDTH 7 0
BBX 7 14 0 -2
BITMAP
10
10
10
10
10
10
10
1E
10
10
10
10
10
10
ENDCHAR
STARTCHAR SF090000
ENCODING 22
SWIDTH 960 0
DWIDTH 7 0
BBX 7 14 0 -2
BITMAP
10
10
10
10
10
10
10
F0
10
10
10
10
10
10
ENDCHAR
STARTCHAR SF070000
ENCODING 23
SWIDTH 960 0
DWIDTH 7 0
BBX 7 8 0 4
BITMAP
10
10
10
10
10
10
10
FE
ENDCHAR
STARTCHAR SF060000
ENCODING 24
SWIDTH 960 0
DWIDTH 7 0
BBX 7 7 0 -2
BITMAP
FE
10
10
10
10
10
10
ENDCHAR
STARTCHAR SF110000
ENCODING 25
SWIDTH 960 0
DWIDTH 7 0
BBX 7 14 0 -2
BITMAP
10
10
10
10
10
10
10
10
10
10
10
10
10
10
ENDCHAR
STARTCHAR lessequal
ENCODING 26
SWIDTH 960 0
DWIDTH 7 0
BBX 7 7 0 1
BITMAP
0C
30
C0
30
0C
00
FC
ENDCHAR
STARTCHAR greaterequal
ENCODING 27
SWIDTH 960 0
DWIDTH 7 0
BBX 7 7 0 1
BITMAP
C0
30
0C
30
C0
00
FC
ENDCHAR
STARTCHAR pi
ENCODING 28
SWIDTH 960 0
DWIDTH 7 0
BBX 7 7 0 0
BITMAP
FC
48
48
48
48
48
48
ENDCHAR
STARTCHAR notequal
ENCODING 29
SWIDTH 960 0
DWIDTH 7 0
BBX 7 8 0 1
BITMAP
08
08
FC
10
10
FC
20
20
ENDCHAR
STARTCHAR sterling
ENCODING 30
SWIDTH 960 0
DWIDTH 7 0
BBX 7 9 0 0
BITMAP
18
24
20
20
78
20
20
78
24
ENDCHAR
STARTCHAR periodcentered
ENCODING 31
SWIDTH 960 0
DWIDTH 7 0
BBX 7 1 0 5
BITMAP
10
ENDCHAR
STARTCHAR space
ENCODING 32
SWIDTH 960 0
DWIDTH 7 0
BBX 0 0 0 0
BITMAP
ENDCHAR
STARTCHAR exclam
ENCODING 33
SWIDTH 960 0
DWIDTH 7 0
BBX 7 10 0 0
BITMAP
10
10
10
10
10
10
10
00
10
10
ENDCHAR
STARTCHAR quotedbl
ENCODING 34
SWIDTH 960 0
DWIDTH 7 0
BBX 7 4 0 7
BITMAP
28
28
28
28
ENDCHAR
STARTCHAR numbersign
ENCODING 35
SWIDTH 960 0
DWIDTH 7 0
BBX 7 10 0 0
BITMAP
28
28
28
7C
28
28
7C
28
28
28
ENDCHAR
STARTCHAR dollar
ENCODING 36
SWIDTH 960 0
DWIDTH 7 0
BBX 7 11 0 -1
BITMAP
10
78
94
94
50
38
14
94
94
78
10
ENDCHAR
STARTCHAR percent
ENCODING 37
SWIDTH 960 0
DWIDTH 7 0
BBX 7 10 0 0
BITMAP
64
94
98
70
10
20
38
64
A4
98
ENDCHAR
STARTCHAR ampersand
ENCODING 38
SWIDTH 960 0
DWIDTH 7 0
BBX 7 10 0 0
BITMAP
30
48
48
48
30
64
94
88
98
64
ENDCHAR
STARTCHAR quotesingle
ENCODING 39
SWIDTH 960 0
DWIDTH 7 0
BBX 7 4 0 7
BITMAP
10
10
10
10
ENDCHAR
STARTCHAR parenleft
ENCODING 40
SWIDTH 960 0
DWIDTH 7 0
BBX 7 13 0 -2
BITMAP
04
08
10
10
20
20
20
20
20
10
10
08
04
ENDCHAR
STARTCHAR parenright
ENCODING 41
SWIDTH 960 0
DWIDTH 7 0
BBX 7 13 0 -2
BITMAP
40
20
10
10
08
08
08
08
08
10
10
20
40
ENDCHAR
STARTCHAR asterisk
ENCODING 42
SWIDTH 960 0
DWIDTH 7 0
BBX 7 7 0 1
BITMAP
10
54
38
10
38
54
10
ENDCHAR
STARTCHAR plus
ENCODING 43
SWIDTH 960 0
DWIDTH 7 0
BBX 7 7 0 1
BITMAP
10
10
10
7C
10
10
10
ENDCHAR
STARTCHAR comma
ENCODING 44
SWIDTH 960 0
DWIDTH 7 0
BBX 7 4 0 -2
BITMAP
30
10
10
20
ENDCHAR
STARTCHAR hyphen
ENCODING 45
SWIDTH 960 0
DWIDTH 7 0
BBX 7 1 0 4
BITMAP
7C
ENDCHAR
STARTCHAR period
ENCODING 46
SWIDTH 960 0
DWIDTH 7 0
BBX 7 3 0 -1
BITMAP
10
38
10
ENDCHAR
STARTCHAR slash
ENCODING 47
SWIDTH 960 0
DWIDTH 7 0
BBX 7 13 0 -2
BITMAP
04
04
08
08
10
10
10
20
20
40
40
80
80
ENDCHAR
STARTCHAR zero
ENCODING 48
SWIDTH 960 0
DWIDTH 7 0
BBX 7 10 0 0
BITMAP
30
48
84
84
84
84
84
84
48
30
ENDCHAR
STARTCHAR one
ENCODING 49
SWIDTH 960 0
DWIDTH 7 0
BBX 7 10 0 0
BITMAP
10
30
50
10
10
10
10
10
10
7C
ENDCHAR
STARTCHAR two
ENCODING 50
SWIDTH 960 0
DWIDTH 7 0
BBX 7 10 0 0
BITMAP
78
84
84
04
08
08
10
20
40
FC
ENDCHAR
STARTCHAR three
ENCODING 51
SWIDTH 960 0
DWIDTH 7 0
BBX 7 10 0 0
BITMAP
FC
04
08
10
38
04
04
84
84
78
ENDCHAR
STARTCHAR four
ENCODING 52
SWIDTH 960 0
DWIDTH 7 0
BBX 7 10 0 0
BITMAP
08
18
28
28
48
48
88
FC
08
08
ENDCHAR
STARTCHAR five
ENCODING 53
SWIDTH 960 0
DWIDTH 7 0
BBX 7 10 0 0
BITMAP
FC
80
80
F8
84
04
04
84
84
78
ENDCHAR
STARTCHAR six
ENCODING 54
SWIDTH 960 0
DWIDTH 7 0
BBX 7 10 0 0
BITMAP
38
40
80
80
B8
C4
84
84
84
78
ENDCHAR
STARTCHAR seven
ENCODING 55
SWIDTH 960 0
DWIDTH 7 0
BBX 7 10 0 0
BITMAP
FC
04
08
08
10
10
20
20
40
40
ENDCHAR
STARTCHAR eight
ENCODING 56
SWIDTH 960 0
DWIDTH 7 0
BBX 7 10 0 0
BITMAP
78
84
84
48
30
48
84
84
84
78
ENDCHAR
STARTCHAR nine
ENCODING 57
SWIDTH 960 0
DWIDTH 7 0
BBX 7 10 0 0
BITMAP
78
84
84
84
8C
74
04
84
88
70
ENDCHAR
STARTCHAR colon
ENCODING 58
SWIDTH 960 0
DWIDTH 7 0
BBX 7 8 0 0
BITMAP
10
38
10
00
00
10
38
10
ENDCHAR
STARTCHAR semicolon
ENCODING 59
SWIDTH 960 0
DWIDTH 7 0
BBX 7 8 0 -1
BITMAP
30
30
00
00
30
10
10
20
ENDCHAR
STARTCHAR less
ENCODING 60
SWIDTH 960 0
DWIDTH 7 0
BBX 7 9 0 0
BITMAP
04
08
10
20
40
20
10
08
04
ENDCHAR
STARTCHAR equal
ENCODING 61
SWIDTH 960 0
DWIDTH 7 0
BBX 7 4 0 3
BITMAP
FC
00
00
FC
ENDCHAR
STARTCHAR greater
ENCODING 62
SWIDTH 960 0
DWIDTH 7 0
BBX 7 9 0 0
BITMAP
40
20
10
08
04
08
10
20
40
ENDCHAR
STARTCHAR question
ENCODING 63
SWIDTH 960 0
DWIDTH 7 0
BBX 7 10 0 0
BITMAP
78
84
84
08
10
10
10
00
10
10
ENDCHAR
STARTCHAR at
ENCODING 64
SWIDTH 960 0
DWIDTH 7 0
BBX 7 10 0 0
BITMAP
38
44
9C
A4
A4
A4
A4
9C
40
3C
ENDCHAR
STARTCHAR A
ENCODING 65
SWIDTH 960 0
DWIDTH 7 0
BBX 7 10 0 0
BITMAP
30
48
84
84
84
FC
84
84
84
84
ENDCHAR
STARTCHAR B
ENCODING 66
SWIDTH 960 0
DWIDTH 7 0
BBX 7 10 0 0
BITMAP
F0
88
84
88
F0
88
84
84
88
F0
ENDCHAR
STARTCHAR C
ENCODING 67
SWIDTH 960 0
DWIDTH 7 0
BBX 7 10 0 0
BITMAP
78
84
84
80
80
80
80
84
84
78
ENDCHAR
STARTCHAR D
ENCODING 68
SWIDTH 960 0
DWIDTH 7 0
BBX 7 10 0 0
BITMAP
F0
88
84
84
84
84
84
84
88
F0
ENDCHAR
STARTCHAR E
ENCODING 69
SWIDTH 960 0
DWIDTH 7 0
BBX 7 10 0 0
BITMAP
FC
80
80
80
F0
80
80
80
80
FC
ENDCHAR
STARTCHAR F
ENCODING 70
SWIDTH 960 0
DWIDTH 7 0
BBX 7 10 0 0
BITMAP
FC
80
80
80
F0
80
80
80
80
80
ENDCHAR
STARTCHAR G
ENCODING 71
SWIDTH 960 0
DWIDTH 7 0
BBX 7 10 0 0
BITMAP
78
84
84
80
80
9C
84
84
8C
74
ENDCHAR
STARTCHAR H
ENCODING 72
SWIDTH 960 0
DWIDTH 7 0
BBX 7 10 0 0
BITMAP
84
84
84
84
FC
84
84
84
84
84
ENDCHAR
STARTCHAR I
ENCODING 73
SWIDTH 960 0
DWIDTH 7 0
BBX 7 10 0 0
BITMAP
7C
10
10
10
10
10
10
10
10
7C
ENDCHAR
STARTCHAR J
ENCODING 74
SWIDTH 960 0
DWIDTH 7 0
BBX 7 10 0 0
BITMAP
1C
08
08
08
08
08
08
88
88
70
ENDCHAR
STARTCHAR K
ENCODING 75
SWIDTH 960 0
DWIDTH 7 0
BBX 7 10 0 0
BITMAP
84
88
90
A0
C0
A0
90
88
84
84
ENDCHAR
STARTCHAR L
ENCODING 76
SWIDTH 960 0
DWIDTH 7 0
BBX 7 10 0 0
BITMAP
80
80
80
80
80
80
80
80
80
FC
ENDCHAR
STARTCHAR M
ENCODING 77
SWIDTH 960 0
DWIDTH 7 0
BBX 7 10 0 0
BITMAP
84
CC
CC
B4
B4
84
84
84
84
84
ENDCHAR
STARTCHAR N
ENCODING 78
SWIDTH 960 0
DWIDTH 7 0
BBX 7 10 0 0
BITMAP
84
84
C4
C4
A4
94
8C
8C
84
84
ENDCHAR
STARTCHAR O
ENCODING 79
SWIDTH 960 0
DWIDTH 7 0
BBX 7 10 0 0
BITMAP
78
84
84
84
84
84
84
84
84
78
ENDCHAR
STARTCHAR P
ENCODING 80
SWIDTH 960 0
DWIDTH 7 0
BBX 7 10 0 0
BITMAP
F8
84
84
84
84
F8
80
80
80
80
ENDCHAR
STARTCHAR Q
ENCODING 81
SWIDTH 960 0
DWIDTH 7 0
BBX 7 12 0 -2
BITMAP
78
84
84
84
84
84
E4
94
8C
78
08
04
ENDCHAR
STARTCHAR R
ENCODING 82
SWIDTH 960 0
DWIDTH 7 0
BBX 7 10 0 0
BITMAP
F8
84
84
84
84
F8
90
88
84
84
ENDCHAR
STARTCHAR S
ENCODING 83
SWIDTH 960 0
DWIDTH 7 0
BBX 7 10 0 0
BITMAP
78
84
84
80
60
18
04
84
84
78
ENDCHAR
STARTCHAR T
ENCODING 84
SWIDTH 960 0
DWIDTH 7 0
BBX 7 10 0 0
BITMAP
FE
10
10
10
10
10
10
10
10
10
ENDCHAR
STARTCHAR U
ENCODING 85
SWIDTH 960 0
DWIDTH 7 0
BBX 7 10 0 0
BITMAP
84
84
84
84
84
84
84
84
84
78
ENDCHAR
STARTCHAR V
ENCODING 86
SWIDTH 960 0
DWIDTH 7 0
BBX 7 10 0 0
BITMAP
84
84
84
84
48
48
48
30
30
30
ENDCHAR
STARTCHAR W
ENCODING 87
SWIDTH 960 0
DWIDTH 7 0
BBX 7 10 0 0
BITMAP
44
44
44
44
44
44
54
54
54
28
ENDCHAR
STARTCHAR X
ENCODING 88
SWIDTH 960 0
DWIDTH 7 0
BBX 7 10 0 0
BITMAP
84
84
48
48
30
30
48
48
84
84
ENDCHAR
STARTCHAR Y
ENCODING 89
SWIDTH 960 0
DWIDTH 7 0
BBX 7 10 0 0
BITMAP
44
44
44
28
28
10
10
10
10
10
ENDCHAR
STARTCHAR Z
ENCODING 90
SWIDTH 960 0
DWIDTH 7 0
BBX 7 10 0 0
BITMAP
FC
04
08
10
10
20
40
40
80
FC
ENDCHAR
STARTCHAR bracketleft
ENCODING 91
SWIDTH 960 0
DWIDTH 7 0
BBX 7 13 0 -2
BITMAP
3C
20
20
20
20
20
20
20
20
20
20
20
3C
ENDCHAR
STARTCHAR backslash
ENCODING 92
SWIDTH 960 0
DWIDTH 7 0
BBX 7 13 0 -2
BITMAP
80
80
40
40
20
20
20
10
10
08
08
04
04
ENDCHAR
STARTCHAR bracketright
ENCODING 93
SWIDTH 960 0
DWIDTH 7 0
BBX 7 13 0 -2
BITMAP
78
08
08
08
08
08
08
08
08
08
08
08
78
ENDCHAR
STARTCHAR asciicircum
ENCODING 94
SWIDTH 960 0
DWIDTH 7 0
BBX 7 3 0 8
BITMAP
30
48
84
ENDCHAR
STARTCHAR underscore
ENCODING 95
SWIDTH 960 0
DWIDTH 7 0
BBX 7 1 0 -2
BITMAP
FC
ENDCHAR
STARTCHAR grave
ENCODING 96
SWIDTH 960 0
DWIDTH 7 0
BBX 7 3 0 8
BITMAP
20
10
08
ENDCHAR
STARTCHAR a
ENCODING 97
SWIDTH 960 0
DWIDTH 7 0
BBX 7 7 0 0
BITMAP
78
84
04
7C
84
84
7C
ENDCHAR
STARTCHAR b
ENCODING 98
SWIDTH 960 0
DWIDTH 7 0
BBX 7 10 0 0
BITMAP
80
80
80
B8
C4
84
84
84
C4
B8
ENDCHAR
STARTCHAR c
ENCODING 99
SWIDTH 960 0
DWIDTH 7 0
BBX 7 7 0 0
BITMAP
78
84
80
80
80
84
78
ENDCHAR
STARTCHAR d
ENCODING 100
SWIDTH 960 0
DWIDTH 7 0
BBX 7 10 0 0
BITMAP
04
04
04
74
8C
84
84
84
8C
74
ENDCHAR
STARTCHAR e
ENCODING 101
SWIDTH 960 0
DWIDTH 7 0
BBX 7 7 0 0
BITMAP
78
84
84
FC
80
84
78
ENDCHAR
STARTCHAR f
ENCODING 102
SWIDTH 960 0
DWIDTH 7 0
BBX 7 10 0 0
BITMAP
18
24
20
20
F8
20
20
20
20
20
ENDCHAR
STARTCHAR g
ENCODING 103
SWIDTH 960 0
DWIDTH 7 0
BBX 7 9 0 -2
BITMAP
74
88
88
88
70
40
B8
84
78
ENDCHAR
STARTCHAR h
ENCODING 104
SWIDTH 960 0
DWIDTH 7 0
BBX 7 10 0 0
BITMAP
80
80
80
B8
C4
84
84
84
84
84
ENDCHAR
STARTCHAR i
ENCODING 105
SWIDTH 960 0
DWIDTH 7 0
BBX 7 10 0 0
BITMAP
10
10
00
30
10
10
10
10
10
7C
ENDCHAR
STARTCHAR j
ENCODING 106
SWIDTH 960 0
DWIDTH 7 0
BBX 7 12 0 -2
BITMAP
04
04
00
0C
04
04
04
04
04
44
44
38
ENDCHAR
STARTCHAR k
ENCODING 107
SWIDTH 960 0
DWIDTH 7 0
BBX 7 10 0 0
BITMAP
80
80
80
88
90
A0
E0
90
88
84
ENDCHAR
STARTCHAR l
ENCODING 108
SWIDTH 960 0
DWIDTH 7 0
BBX 7 10 0 0
BITMAP
30
10
10
10
10
10
10
10
10
7C
ENDCHAR
STARTCHAR m
ENCODING 109
SWIDTH 960 0
DWIDTH 7 0
BBX 7 7 0 0
BITMAP
68
54
54
54
54
54
44
ENDCHAR
STARTCHAR n
ENCODING 110
SWIDTH 960 0
DWIDTH 7 0
BBX 7 7 0 0
BITMAP
B8
C4
84
84
84
84
84
ENDCHAR
STARTCHAR o
ENCODING 111
SWIDTH 960 0
DWIDTH 7 0
BBX 7 7 0 0
BITMAP
78
84
84
84
84
84
78
ENDCHAR
STARTCHAR p
ENCODING 112
SWIDTH 960 0
DWIDTH 7 0
BBX 7 9 0 -2
BITMAP
B8
C4
84
84
84
C4
B8
80
80
ENDCHAR
STARTCHAR q
ENCODING 113
SWIDTH 960 0
DWIDTH 7 0
BBX 7 9 0 -2
BITMAP
74
8C
84
84
84
8C
74
04
04
ENDCHAR
STARTCHAR r
ENCODING 114
SWIDTH 960 0
DWIDTH 7 0
BBX 7 7 0 0
BITMAP
B8
C4
84
80
80
80
80
ENDCHAR
STARTCHAR s
ENCODING 115
SWIDTH 960 0
DWIDTH 7 0
BBX 7 7 0 0
BITMAP
78
84
40
30
08
84
78
ENDCHAR
STARTCHAR t
ENCODING 116
SWIDTH 960 0
DWIDTH 7 0
BBX 7 10 0 0
BITMAP
20
20
20
F8
20
20
20
20
24
18
ENDCHAR
STARTCHAR u
ENCODING 117
SWIDTH 960 0
DWIDTH 7 0
BBX 7 7 0 0
BITMAP
84
84
84
84
84
8C
74
ENDCHAR
STARTCHAR v
ENCODING 118
SWIDTH 960 0
DWIDTH 7 0
BBX 7 7 0 0
BITMAP
44
44
44
28
28
10
10
ENDCHAR
STARTCHAR w
ENCODING 119
SWIDTH 960 0
DWIDTH 7 0
BBX 7 7 0 0
BITMAP
44
44
54
54
54
54
28
ENDCHAR
STARTCHAR x
ENCODING 120
SWIDTH 960 0
DWIDTH 7 0
BBX 7 7 0 0
BITMAP
84
84
48
30
48
84
84
ENDCHAR
STARTCHAR y
ENCODING 121
SWIDTH 960 0
DWIDTH 7 0
BBX 7 9 0 -2
BITMAP
84
84
84
84
8C
74
04
84
78
ENDCHAR
STARTCHAR z
ENCODING 122
SWIDTH 960 0
DWIDTH 7 0
BBX 7 7 0 0
BITMAP
FC
08
10
20
20
40
FC
ENDCHAR
STARTCHAR braceleft
ENCODING 123
SWIDTH 960 0
DWIDTH 7 0
BBX 7 13 0 -2
BITMAP
0C
10
10
10
10
10
20
10
10
10
10
10
0C
ENDCHAR
STARTCHAR bar
ENCODING 124
SWIDTH 960 0
DWIDTH 7 0
BBX 7 13 0 -2
BITMAP
10
10
10
10
10
10
10
10
10
10
10
10
10
ENDCHAR
STARTCHAR braceright
ENCODING 125
SWIDTH 960 0
DWIDTH 7 0
BBX 7 13 0 -2
BITMAP
60
10
10
10
10
10
08
10
10
10
10
10
60
ENDCHAR
STARTCHAR asciitilde
ENCODING 126
SWIDTH 960 0
DWIDTH 7 0
BBX 7 4 0 7
BITMAP
40
A4
94
08
ENDCHAR
STARTCHAR bullet
ENCODING 149
SWIDTH 960 0
DWIDTH 7 0
BBX 7 5 0 1
BITMAP
38
7C
7C
7C
38
ENDCHAR
STARTCHAR lessequal
ENCODING 152
SWIDTH 960 0
DWIDTH 7 0
BBX 7 7 0 1
BITMAP
0C
30
C0
30
0C
00
FC
ENDCHAR
STARTCHAR greaterequal
ENCODING 153
SWIDTH 960 0
DWIDTH 7 0
BBX 7 7 0 1
BITMAP
C0
30
0C
30
C0
00
FC
ENDCHAR
STARTCHAR space
ENCODING 154
SWIDTH 960 0
DWIDTH 7 0
BBX 0 0 0 0
BITMAP
ENDCHAR
STARTCHAR degree
ENCODING 156
SWIDTH 960 0
DWIDTH 7 0
BBX 7 4 0 7
BITMAP
30
48
48
30
ENDCHAR
STARTCHAR twosuperior
ENCODING 157
SWIDTH 960 0
DWIDTH 7 0
BBX 7 7 0 4
BITMAP
30
48
08
10
20
40
78
ENDCHAR
STARTCHAR periodcentered
ENCODING 158
SWIDTH 960 0
DWIDTH 7 0
BBX 7 1 0 5
BITMAP
10
ENDCHAR
STARTCHAR afii10071
ENCODING 163
SWIDTH 960 0
DWIDTH 7 0
BBX 7 10 0 0
BITMAP
48
48
00
78
84
84
FC
80
84
78
ENDCHAR
STARTCHAR afii10023
ENCODING 179
SWIDTH 960 0
DWIDTH 7 0
BBX 7 12 0 0
BITMAP
48
48
FC
80
80
80
F8
80
80
80
80
FC
ENDCHAR
STARTCHAR copyright
ENCODING 191
SWIDTH 960 0
DWIDTH 7 0
BBX 7 11 0 0
BITMAP
78
84
B4
CC
C4
C4
C4
CC
B4
84
78
ENDCHAR
STARTCHAR afii10096
ENCODING 192
SWIDTH 960 0
DWIDTH 7 0
BBX 7 7 0 0
BITMAP
98
A4
A4
E4
A4
A4
98
ENDCHAR
STARTCHAR afii10065
ENCODING 193
SWIDTH 960 0
DWIDTH 7 0
BBX 7 7 0 0
BITMAP
78
84
1C
64
84
8C
74
ENDCHAR
STARTCHAR afii10066
ENCODING 194
SWIDTH 960 0
DWIDTH 7 0
BBX 7 10 0 0
BITMAP
0C
70
80
B8
C4
84
84
84
84
78
ENDCHAR
STARTCHAR afii10088
ENCODING 195
SWIDTH 960 0
DWIDTH 7 0
BBX 7 9 0 -2
BITMAP
88
88
88
88
88
88
FC
04
04
ENDCHAR
STARTCHAR afii10069
ENCODING 196
SWIDTH 960 0
DWIDTH 7 0
BBX 7 8 0 -1
BITMAP
38
28
28
48
48
48
FC
84
ENDCHAR
STARTCHAR afii10070
ENCODING 197
SWIDTH 960 0
DWIDTH 7 0
BBX 7 7 0 0
BITMAP
78
84
84
FC
80
84
78
ENDCHAR
STARTCHAR afii10086
ENCODING 198
SWIDTH 960 0
DWIDTH 7 0
BBX 7 11 0 -2
BITMAP
10
10
38
54
54
54
54
54
38
10
10
ENDCHAR
STARTCHAR afii10068
ENCODING 199
SWIDTH 960 0
DWIDTH 7 0
BBX 7 7 0 0
BITMAP
7C
40
40
40
40
40
40
ENDCHAR
STARTCHAR afii10087
ENCODING 200
SWIDTH 960 0
DWIDTH 7 0
BBX 7 7 0 0
BITMAP
84
84
48
30
48
84
84
ENDCHAR
STARTCHAR afii10074
ENCODING 201
SWIDTH 960 0
DWIDTH 7 0
BBX 7 7 0 0
BITMAP
84
8C
94
A4
C4
84
84
ENDCHAR
STARTCHAR afii10075
ENCODING 202
SWIDTH 960 0
DWIDTH 7 0
BBX 7 9 0 0
BITMAP
48
30
84
8C
94
A4
C4
84
84
ENDCHAR
STARTCHAR afii10076
ENCODING 203
SWIDTH 960 0
DWIDTH 7 0
BBX 7 7 0 0
BITMAP
84
88
90
A0
D0
88
84
ENDCHAR
STARTCHAR afii10077
ENCODING 204
SWIDTH 960 0
DWIDTH 7 0
BBX 7 7 0 0
BITMAP
3C
24
24
24
24
24
C4
ENDCHAR
STARTCHAR afii10078
ENCODING 205
SWIDTH 960 0
DWIDTH 7 0
BBX 7 7 0 0
BITMAP
84
CC
CC
B4
B4
84
84
ENDCHAR
STARTCHAR afii10079
ENCODING 206
SWIDTH 960 0
DWIDTH 7 0
BBX 7 7 0 0
BITMAP
84
84
84
FC
84
84
84
ENDCHAR
STARTCHAR afii10080
ENCODING 207
SWIDTH 960 0
DWIDTH 7 0
BBX 7 7 0 0
BITMAP
78
84
84
84
84
84
78
ENDCHAR
STARTCHAR afii10081
ENCODING 208
SWIDTH 960 0
DWIDTH 7 0
BBX 7 7 0 0
BITMAP
FC
84
84
84
84
84
84
ENDCHAR
STARTCHAR afii10097
ENCODING 209
SWIDTH 960 0
DWIDTH 7 0
BBX 7 7 0 0
BITMAP
7C
84
84
7C
24
44
84
ENDCHAR
STARTCHAR afii10082
ENCODING 210
SWIDTH 960 0
DWIDTH 7 0
BBX 7 9 0 -2
BITMAP
B8
C4
84
84
84
C4
B8
80
80
ENDCHAR
STARTCHAR afii10083
ENCODING 211
SWIDTH 960 0
DWIDTH 7 0
BBX 7 7 0 0
BITMAP
78
84
80
80
80
84
78
ENDCHAR
STARTCHAR afii10084
ENCODING 212
SWIDTH 960 0
DWIDTH 7 0
BBX 7 7 0 0
BITMAP
7C
10
10
10
10
10
10
ENDCHAR
STARTCHAR afii10085
ENCODING 213
SWIDTH 960 0
DWIDTH 7 0
BBX 7 9 0 -2
BITMAP
84
84
84
84
8C
74
04
84
78
ENDCHAR
STARTCHAR afii10072
ENCODING 214
SWIDTH 960 0
DWIDTH 7 0
BBX 7 7 0 0
BITMAP
54
54
54
38
54
54
54
ENDCHAR
STARTCHAR afii10067
ENCODING 215
SWIDTH 960 0
DWIDTH 7 0
BBX 7 7 0 0
BITMAP
F8
84
84
F8
84
84
F8
ENDCHAR
STARTCHAR afii10094
ENCODING 216
SWIDTH 960 0
DWIDTH 7 0
BBX 7 7 0 0
BITMAP
40
40
40
78
44
44
78
ENDCHAR
STARTCHAR afii10093
ENCODING 217
SWIDTH 960 0
DWIDTH 7 0
BBX 7 7 0 0
BITMAP
84
84
84
E4
94
94
E4
ENDCHAR
STARTCHAR afii10073
ENCODING 218
SWIDTH 960 0
DWIDTH 7 0
BBX 7 7 0 0
BITMAP
78
84
04
18
04
84
78
ENDCHAR
STARTCHAR afii10090
ENCODING 219
SWIDTH 960 0
DWIDTH 7 0
BBX 7 7 0 0
BITMAP
54
54
54
54
54
54
7C
ENDCHAR
STARTCHAR afii10095
ENCODING 220
SWIDTH 960 0
DWIDTH 7 0
BBX 7 7 0 0
BITMAP
78
84
04
3C
04
84
78
ENDCHAR
STARTCHAR afii10091
ENCODING 221
SWIDTH 960 0
DWIDTH 7 0
BBX 7 9 0 -2
BITMAP
A8
A8
A8
A8
A8
A8
FC
04
04
ENDCHAR
STARTCHAR afii10089
ENCODING 222
SWIDTH 960 0
DWIDTH 7 0
BBX 7 7 0 0
BITMAP
84
84
84
7C
04
04
04
ENDCHAR
STARTCHAR afii10092
ENCODING 223
SWIDTH 960 0
DWIDTH 7 0
BBX 7 7 0 0
BITMAP
E0
20
20
38
24
24
38
ENDCHAR
STARTCHAR afii10048
ENCODING 224
SWIDTH 960 0
DWIDTH 7 0
BBX 7 10 0 0
BITMAP
98
A4
A4
A4
E4
A4
A4
A4
A4
98
ENDCHAR
STARTCHAR afii10017
ENCODING 225
SWIDTH 960 0
DWIDTH 7 0
BBX 7 10 0 0
BITMAP
30
48
84
84
84
FC
84
84
84
84
ENDCHAR
STARTCHAR afii10018
ENCODING 226
SWIDTH 960 0
DWIDTH 7 0
BBX 7 10 0 0
BITMAP
F8
80
80
80
F8
84
84
84
84
F8
ENDCHAR
STARTCHAR afii10040
ENCODING 227
SWIDTH 960 0
DWIDTH 7 0
BBX 7 12 0 -2
BITMAP
88
88
88
88
88
88
88
88
88
FC
04
04
ENDCHAR
STARTCHAR afii10021
ENCODING 228
SWIDTH 960 0
DWIDTH 7 0
BBX 7 11 0 -1
BITMAP
38
28
28
28
28
48
48
48
48
FC
84
ENDCHAR
STARTCHAR afii10022
ENCODING 229
SWIDTH 960 0
DWIDTH 7 0
BBX 7 10 0 0
BITMAP
FC
80
80
80
F0
80
80
80
80
FC
ENDCHAR
STARTCHAR afii10038
ENCODING 230
SWIDTH 960 0
DWIDTH 7 0
BBX 7 10 0 0
BITMAP
10
38
54
54
54
54
54
54
38
10
ENDCHAR
STARTCHAR afii10020
ENCODING 231
SWIDTH 960 0
DWIDTH 7 0
BBX 7 10 0 0
BITMAP
FC
80
80
80
80
80
80
80
80
80
ENDCHAR
STARTCHAR afii10039
ENCODING 232
SWIDTH 960 0
DWIDTH 7 0
BBX 7 10 0 0
BITMAP
84
84
48
48
30
30
48
48
84
84
ENDCHAR
STARTCHAR afii10026
ENCODING 233
SWIDTH 960 0
DWIDTH 7 0
BBX 7 10 0 0
BITMAP
84
84
8C
8C
94
A4
C4
C4
84
84
ENDCHAR
STARTCHAR afii10027
ENCODING 234
SWIDTH 960 0
DWIDTH 7 0
BBX 7 12 0 0
BITMAP
48
30
84
84
8C
8C
94
A4
C4
C4
84
84
ENDCHAR
STARTCHAR afii10028
ENCODING 235
SWIDTH 960 0
DWIDTH 7 0
BBX 7 10 0 0
BITMAP
84
88
90
A0
C0
A0
90
88
84
84
ENDCHAR
STARTCHAR afii10029
ENCODING 236
SWIDTH 960 0
DWIDTH 7 0
BBX 7 10 0 0
BITMAP
3C
24
24
24
24
24
24
24
A4
44
ENDCHAR
STARTCHAR afii10030
ENCODING 237
SWIDTH 960 0
DWIDTH 7 0
BBX 7 10 0 0
BITMAP
84
CC
CC
B4
B4
84
84
84
84
84
ENDCHAR
STARTCHAR afii10031
ENCODING 238
SWIDTH 960 0
DWIDTH 7 0
BBX 7 10 0 0
BITMAP
84
84
84
84
FC
84
84
84
84
84
ENDCHAR
STARTCHAR afii10032
ENCODING 239
SWIDTH 960 0
DWIDTH 7 0
BBX 7 10 0 0
BITMAP
78
84
84
84
84
84
84
84
84
78
ENDCHAR
STARTCHAR afii10033
ENCODING 240
SWIDTH 960 0
DWIDTH 7 0
BBX 7 10 0 0
BITMAP
FC
48
48
48
48
48
48
48
48
48
ENDCHAR
STARTCHAR afii10049
ENCODING 241
SWIDTH 960 0
DWIDTH 7 0
BBX 7 10 0 0
BITMAP
7C
84
84
84
84
7C
24
44
84
84
ENDCHAR
STARTCHAR afii10034
ENCODING 242
SWIDTH 960 0
DWIDTH 7 0
BBX 7 10 0 0
BITMAP
F8
84
84
84
84
F8
80
80
80
80
ENDCHAR
STARTCHAR afii10035
ENCODING 243
SWIDTH 960 0
DWIDTH 7 0
BBX 7 10 0 0
BITMAP
78
84
84
80
80
80
80
84
84
78
ENDCHAR
STARTCHAR afii10036
ENCODING 244
SWIDTH 960 0
DWIDTH 7 0
BBX 7 10 0 0
BITMAP
7C
10
10
10
10
10
10
10
10
10
ENDCHAR
STARTCHAR afii10037
ENCODING 245
SWIDTH 960 0
DWIDTH 7 0
BBX 7 10 0 0
BITMAP
84
84
84
84
8C
74
04
04
88
70
ENDCHAR
STARTCHAR afii10024
ENCODING 246
SWIDTH 960 0
DWIDTH 7 0
BBX 7 10 0 0
BITMAP
54
54
54
54
38
54
54
54
54
54
ENDCHAR
STARTCHAR afii10019
ENCODING 247
SWIDTH 960 0
DWIDTH 7 0
BBX 7 10 0 0
BITMAP
F8
84
84
84
F8
84
84
84
84
F8
ENDCHAR
STARTCHAR afii10046
ENCODING 248
SWIDTH 960 0
DWIDTH 7 0
BBX 7 10 0 0
BITMAP
40
40
40
40
78
44
44
44
44
78
ENDCHAR
STARTCHAR afii10045
ENCODING 249
SWIDTH 960 0
DWIDTH 7 0
BBX 7 10 0 0
BITMAP
84
84
84
84
E4
94
94
94
94
E4
ENDCHAR
STARTCHAR afii10025
ENCODING 250
SWIDTH 960 0
DWIDTH 7 0
BBX 7 10 0 0
BITMAP
70
88
04
08
30
08
04
84
88
70
ENDCHAR
STARTCHAR afii10042
ENCODING 251
SWIDTH 960 0
DWIDTH 7 0
BBX 7 10 0 0
BITMAP
54
54
54
54
54
54
54
54
54
7C
ENDCHAR
STARTCHAR afii10047
ENCODING 252
SWIDTH 960 0
DWIDTH 7 0
BBX 7 10 0 0
BITMAP
70
88
04
04
3C
04
04
84
88
70
ENDCHAR
STARTCHAR afii10043
ENCODING 253
SWIDTH 960 0
DWIDTH 7 0
BBX 7 12 0 -2
BITMAP
A8
A8
A8
A8
A8
A8
A8
A8
A8
FC
04
04
ENDCHAR
STARTCHAR afii10041
ENCODING 254
SWIDTH 960 0
DWIDTH 7 0
BBX 7 10 0 0
BITMAP
84
84
84
84
7C
04
04
04
04
04
ENDCHAR
STARTCHAR afii10044
ENCODING 255
SWIDTH 960 0
DWIDTH 7 0
BBX 7 10 0 0
BITMAP
E0
20
20
20
38
24
24
24
24
38
ENDCHAR
ENDFONT
